#!OML:ASF I:\Random Stuff\random\construction\7_22_03\Session 2\subj1.ASF
:FULLY-SPECIFIED
:DEGREES
562
root 5.24773 17.706 0.0813733 -68.8286 84.5146 -75.0677
lowerback 4.2278 2.20295 0.0473296
upperback -2.15496 3.00611 1.11376
thorax -4.65442 1.51395 0.876625
lowerneck -21.1881 -0.191249 1.71064
upperneck 29.5545 -0.704318 0.838036
head 13.5318 0.192685 -0.0415015
rclavicle 5.49143e-015 -4.77083e-015
rhumerus -41.7519 2.50292 -52.5316
rradius 47.9904
rwrist -32.4277
rhand -45.1542 13.8177
rfingers 7.12502
rthumb -17.932 -15.3756
lclavicle 5.49143e-015 -4.77083e-015
lhumerus -48.4981 3.70986 57.5633
lradius 51.8798
lwrist 64.1215
lhand -19.2513 65.2478
lfingers 7.12502
lthumb 7.06258 -95.1099
rfemur -8.73277 -3.86725 19.1977
rtibia 23.2726
rfoot -8.32427 -16.4894
rtoes -26.5295
lfemur -14.9517 -10.5082 -17.4422
ltibia 28.4256
lfoot -18.7339 7.14736
ltoes -19.5507
563
root 5.23711 17.7197 -0.0140212 -68.1828 84.0819 -74.3144
lowerback 4.33846 2.22447 0.476816
upperback -2.14949 3.0666 1.1791
thorax -4.69362 1.53201 0.694923
lowerneck -21.3805 -0.209462 1.5935
upperneck 29.8347 -0.714321 0.922375
head 13.6929 0.194177 0.0120965
rclavicle 2.49475e-014 -1.59028e-015
rhumerus -41.4546 3.0663 -53.6544
rradius 48.8268
rwrist -32.4107
rhand -44.606 13.8807
rfingers 7.12502
rthumb -17.4045 -15.3601
lclavicle 2.49475e-014 -1.59028e-015
lhumerus -48.2446 2.94925 59.0894
lradius 53.6072
lwrist 65.8659
lhand -18.6288 65.1409
lfingers 7.12502
lthumb 7.66347 -94.982
rfemur -10.0814 -5.95823 18.9073
rtibia 25.5572
rfoot -7.51273 -13.7002
rtoes -29.705
lfemur -14.7295 -10.3387 -17.3446
ltibia 28.1647
lfoot -18.6045 6.97193
ltoes -18.3341
564
root 5.22178 17.7278 -0.111151 -66.8201 83.7873 -72.8039
lowerback 4.56063 2.22707 0.727188
upperback -2.16671 3.09245 1.22634
thorax -4.82754 1.53727 0.592112
lowerneck -21.4213 -0.162846 1.70506
upperneck 29.9288 -0.623661 0.732544
head 13.7406 0.221049 -0.0658935
rclavicle 1.10325e-014 1.23246e-014
rhumerus -41.0355 3.56777 -54.673
rradius 49.4738
rwrist -32.2249
rhand -43.956 13.6616
rfingers 7.12502
rthumb -16.7788 -15.6334
lclavicle 1.10325e-014 1.23246e-014
lhumerus -48.0331 2.40776 60.5292
lradius 55.2151
lwrist 67.8855
lhand -18.4591 65.0816
lfingers 7.12502
lthumb 7.82719 -94.9168
rfemur -11.5782 -7.86903 18.3907
rtibia 28.1356
rfoot -6.87678 -11.1583
rtoes -32.1457
lfemur -14.4379 -10.0956 -17.4381
ltibia 27.8417
lfoot -18.4645 6.73118
ltoes -16.9259
565
root 5.20396 17.7299 -0.204303 -64.9426 83.6888 -70.7273
lowerback 4.83753 2.21403 0.697891
upperback -2.16682 3.07772 1.24209
thorax -4.98741 1.52992 0.614443
lowerneck -21.2842 -0.0734475 1.79726
upperneck 29.7611 -0.474499 0.570133
head 13.6393 0.268062 -0.120905
rclavicle -4.00551e-014 -4.77083e-015
rhumerus -40.521 4.15416 -55.6705
rradius 50.036
rwrist -32.0526
rhand -43.5843 13.6325
rfingers 7.12502
rthumb -16.421 -15.6925
lclavicle -4.00551e-014 -4.77083e-015
lhumerus -47.8516 1.96844 61.9275
lradius 56.7174
lwrist 69.7079
lhand -18.0219 64.9551
lfingers 7.12502
lthumb 8.2492 -94.774
rfemur -13.1288 -9.42498 17.6266
rtibia 30.9179
rfoot -6.39654 -9.30739
rtoes -34.729
lfemur -14.0436 -9.72282 -17.7776
ltibia 27.3712
lfoot -18.2082 6.45573
ltoes -16.2203
566
root 5.1865 17.7359 -0.291503 -62.4886 83.7645 -68.0927
lowerback 5.0893 2.22584 0.423455
upperback -2.15871 3.07385 1.19659
thorax -5.13402 1.53465 0.710608
lowerneck -21.1625 -0.0278157 1.74976
upperneck 29.5186 -0.392017 0.55792
head 13.5109 0.289556 -0.104735
rclavicle 1.10325e-014 5.1684e-015
rhumerus -40.0189 4.67731 -56.5955
rradius 50.5239
rwrist -31.8188
rhand -43.1616 14.4696
rfingers 7.12502
rthumb -16.014 -14.8886
lclavicle 1.10325e-014 5.1684e-015
lhumerus -47.5845 1.50465 63.2892
lradius 58.0399
lwrist 71.144
lhand -17.0887 64.8351
lfingers 7.12502
lthumb 9.14979 -94.6166
rfemur -14.7683 -10.5979 16.6817
rtibia 33.7259
rfoot -6.30212 -7.99931
rtoes -37.4742
lfemur -13.6037 -9.19918 -18.3164
ltibia 26.7266
lfoot -17.8502 6.11922
ltoes -16.1507
567
root 5.17148 17.7459 -0.373857 -59.1786 83.9799 -64.5936
lowerback 5.33318 2.27097 -0.0567376
upperback -2.14695 3.09304 1.08285
thorax -5.28001 1.55646 0.849198
lowerneck -20.9897 -0.0201554 1.55459
upperneck 29.1834 -0.390796 0.785547
head 13.3346 0.291383 0.0160731
rclavicle -1.18028e-014 -1.59028e-015
rhumerus -39.5302 4.91426 -57.3538
rradius 50.8581
rwrist -31.3382
rhand -42.4062 15.7221
rfingers 7.12502
rthumb -15.2865 -13.693
lclavicle -1.18028e-014 -1.59028e-015
lhumerus -47.2859 0.935238 64.6299
lradius 59.3197
lwrist 72.4804
lhand -16.4013 64.8449
lfingers 7.12502
lthumb 9.81303 -94.5962
rfemur -16.4422 -11.4385 15.5803
rtibia 36.3576
rfoot -6.93265 -6.80841
rtoes -38.6004
lfemur -13.052 -8.72036 -19.0285
ltibia 25.9103
lfoot -17.4715 5.82257
ltoes -15.9784
568
root 5.16048 17.7508 -0.448304 -55.4852 84.2698 -60.6324
lowerback 5.58557 2.27983 -0.702956
upperback -2.09772 3.04651 0.953943
thorax -5.39861 1.55137 1.07197
lowerneck -20.8419 0.0300238 1.53141
upperneck 28.8951 -0.320841 0.801566
head 13.1835 0.313724 0.0359634
rclavicle 3.14825e-014 1.66979e-014
rhumerus -38.9077 5.04911 -58.0581
rradius 51.0246
rwrist -30.8168
rhand -41.7504 16.9972
rfingers 7.12502
rthumb -14.6547 -12.4649
lclavicle 3.14825e-014 1.66979e-014
lhumerus -47.0622 0.400788 65.8915
lradius 60.6215
lwrist 73.6513
lhand -16.0468 64.8849
lfingers 7.12502
lthumb 10.155 -94.6198
rfemur -17.9475 -11.984 14.4245
rtibia 38.5968
rfoot -8.21396 -6.0248
rtoes -37.0695
lfemur -12.3258 -8.26951 -19.8183
ltibia 24.9431
lfoot -17.0522 5.43341
ltoes -15.1182
569
root 5.15196 17.7501 -0.515073 -51.4702 84.659 -56.3291
lowerback 5.81728 2.22574 -1.4875
upperback -2.02775 2.90084 0.812289
thorax -5.48633 1.50213 1.37133
lowerneck -20.8143 0.115657 1.72395
upperneck 28.7331 -0.158372 0.443665
head 13.1099 0.350168 -0.110113
rclavicle 1.3418e-015 0
rhumerus -38.1093 5.10403 -58.7724
rradius 50.9863
rwrist -30.3965
rhand -41.3052 18.1196
rfingers 7.12502
rthumb -14.2257 -11.3732
lclavicle 1.3418e-015 0
lhumerus -46.7906 0.0722415 67.0289
lradius 61.6665
lwrist 74.2792
lhand -15.6386 64.9127
lfingers 7.12502
lthumb 10.5487 -94.628
rfemur -19.227 -12.3013 13.2088
rtibia 40.249
rfoot -9.82295 -6.3478
rtoes -33.051
lfemur -11.5503 -7.71544 -20.6872
ltibia 23.8936
lfoot -16.5836 4.87214
ltoes -14.4226
570
root 5.14448 17.7491 -0.577822 -47.7513 85.0953 -52.3523
lowerback 6.02438 2.14439 -2.2186
upperback -1.97182 2.71865 0.634722
thorax -5.56588 1.43302 1.60938
lowerneck -20.6857 0.206466 1.77091
upperneck 28.444 -0.0198495 0.344738
head 12.9647 0.394445 -0.134902
rclavicle 8.4732e-015 1.23246e-014
rhumerus -37.3376 4.96075 -59.4767
rradius 50.8541
rwrist -30.1861
rhand -40.7278 18.983
rfingers 7.12502
rthumb -13.6693 -10.5481
lclavicle 8.4732e-015 1.23246e-014
lhumerus -46.3844 -0.364605 68.15
lradius 62.3807
lwrist 74.4839
lhand -15.3233 64.8856
lfingers 7.12502
lthumb 10.8529 -94.5852
rfemur -20.2731 -12.4547 12.0003
rtibia 41.1673
rfoot -11.4562 -7.85042
rtoes -27.8482
lfemur -10.8177 -7.18208 -21.5353
ltibia 22.8574
lfoot -16.1607 4.24497
ltoes -14.5746
571
root 5.13838 17.7535 -0.635104 -45.8626 85.4357 -50.2416
lowerback 6.2106 2.04562 -2.73872
upperback -1.93115 2.53054 0.48703
thorax -5.63774 1.35503 1.76255
lowerneck -20.662 0.33003 1.84176
upperneck 28.2473 0.131012 0.325368
head 12.8807 0.460121 -0.130224
rclavicle -2.73329e-016 -5.56597e-015
rhumerus -36.6639 4.68337 -60.1541
rradius 50.7492
rwrist -30.0309
rhand -40.2056 19.5278
rfingers 7.12502
rthumb -13.166 -10.0365
lclavicle -2.73329e-016 -5.56597e-015
lhumerus -45.9338 -1.02936 69.2855
lradius 62.9222
lwrist 74.5669
lhand -15.481 64.8016
lfingers 7.12502
lthumb 10.7008 -94.5091
rfemur -21.0601 -12.4016 11.03
rtibia 41.257
rfoot -13.092 -10.2212
rtoes -22.0214
lfemur -10.171 -6.74247 -22.1319
ltibia 21.9266
lfoot -15.8035 3.56628
ltoes -14.2181
572
root 5.1314 17.7636 -0.688891 -46.8563 85.5856 -51.0548
lowerback 6.38684 1.93902 -2.9609
upperback -1.90249 2.36072 0.427982
thorax -5.7061 1.27792 1.83999
lowerneck -20.7417 0.412308 1.95922
upperneck 28.1712 0.252736 0.156802
head 12.8674 0.499521 -0.195328
rclavicle -3.22777e-014 1.19271e-014
rhumerus -36.064 4.29221 -60.781
rradius 50.6656
rwrist -29.6418
rhand -39.8575 19.6096
rfingers 7.12502
rthumb -12.8304 -9.97606
lclavicle -3.22777e-014 1.19271e-014
lhumerus -45.3522 -1.63091 70.4191
lradius 63.1328
lwrist 74.419
lhand -15.9957 64.7574
lfingers 7.12502
lthumb 10.2043 -94.4899
rfemur -21.6055 -12.0943 10.4551
rtibia 40.5001
rfoot -14.5598 -13.2044
rtoes -16.0088
lfemur -9.68193 -6.40257 -22.3659
ltibia 21.2038
lfoot -15.4996 2.91173
ltoes -13.1281
